<?xml version="1.0" standalone="no"?>
<!DOCTYPE svg PUBLIC "-//W3C//DTD SVG 20010904//EN"
 "http://www.w3.org/TR/2001/REC-SVG-20010904/DTD/svg10.dtd">
<svg version="1.0" xmlns="http://www.w3.org/2000/svg"
 width="260.000000pt" height="260.000000pt" viewBox="0 0 260.000000 260.000000"
 preserveAspectRatio="xMidYMid meet">
<metadata>
Created by potrace 1.11, written by Peter Selinger 2001-2013
</metadata>
<g transform="translate(0.000000,260.000000) scale(0.100000,-0.100000)"
fill="#000000" stroke="none">
<path d="M1209 2327 c-35 -19 -54 -40 -95 -108 -49 -81 -211 -358 -262 -448
-14 -25 -155 -270 -315 -545 -159 -276 -298 -516 -309 -534 -42 -74 -33 -160
21 -220 l30 -32 1014 0 1013 0 28 29 c35 36 55 95 50 145 -2 26 -34 92 -99
203 -52 91 -95 169 -95 174 0 5 -4 9 -10 9 -5 0 -10 4 -10 9 0 6 -104 189
-231 408 -127 219 -291 502 -364 628 -74 127 -143 241 -153 253 -23 26 -91 52
-137 52 -17 0 -52 -10 -76 -23z"/>
</g>
</svg>
