<svg width="99" height="27" viewBox="0 0 99 27" xmlns="https://www.w3.org/2000/svg">
  <g fill="#FFF" fill-rule="evenodd">
    <path d="M26.09 13.673c-.174-.346-.623-.623-.97-.623h-.76c-.38 0-.794.277-.966.623l-6.013 12.6c-.172.346 0 .554.38.554h1.383c.553 0 .795-.242.933-.554.14-.31.484-.97.553-1.108.068-.173.345-.31.725-.31h6.462c.38 0 .622.068.725.276.07.14.415.728.553 1.074.173.31.45.588.968.588h2.004c.38 0 .518-.277.415-.554-.104-.207-6.393-12.565-6.393-12.565zm-3.802 9.277c-.38 0-.553-.277-.38-.623l2.384-5.09c.173-.345.415-.345.553 0l2.28 5.09c.14.346-.034.623-.38.623H22.29zm50.208-9.173v12.46c0 .348.31.59.69.59h1.66c.38 0 .69-.242.69-.623V13.742c0-.38-.24-.692-.62-.692H73.22c-.415.035-.726.277-.726.727zM44.99 21.6c-.207-.312-.103-.658.277-.762 0 0 1.417-.415 2.108-1.038.69-.623 1.037-1.488 1.037-2.63 0-.762-.14-1.385-.38-1.905-.277-.52-.623-.934-1.14-1.246-.485-.312-1.072-.555-1.763-.693-.692-.14-1.59-.208-1.59-.208-.38 0-.968-.035-1.348-.035h-6.808c-.38 0-.69.31-.69.692v12.46c0 .382.31.625.69.625h1.624c.38 0 .69-.243.69-.624v-4.95h3.077c.38 0 .864.243 1.07.554l3.18 4.466c.31.38.588.554.933.554h2.108c.38 0 .415-.347.31-.52-.206-.207-3.385-4.742-3.385-4.742zm-1.278-2.527c-.415.104-.898.104-.898.104-.38 0-.968.035-1.348.035H38.32c-.38 0-.69-.312-.69-.693V15.99c0-.38.31-.692.69-.692h3.146c.38 0 .968 0 1.348.035 0 0 .483.034.898.103.415.104.76.243 1.002.416s.415.38.518.623c.104.242.173.485.173.76 0 .278-.07.555-.173.763-.103.242-.276.45-.518.623-.242.208-.587.346-1.002.45zm48.964-5.988c-.38 0-.656.242-.656.588v7.962c0 .38-.207.45-.484.173l-7.982-8.273c-.242-.277-.622-.485-1.14-.485h-1.486c-.484 0-.69.242-.69.52v12.738c0 .242.24.484.62.484h1.487c.38 0 .62-.207.62-.554v-8.41c0-.382.21-.45.485-.174l8.328 8.654c.276.277.587.484 1.14.484h1.14c.38 0 .692-.31.692-.692V13.777c0-.38-.31-.692-.69-.692h-1.384zM60.16 20.873c-.173.312-.484.312-.656 0L55.6 13.708c-.174-.346-.52-.623-.97-.623h-2.106c-.38 0-.692.31-.692.692v12.46c0 .382.242.625.692.625h1.313c.38 0 .656-.243.656-.59 0-.172 0-9.068.035-9.068l4.872 9.07c.173.31.622.345.795 0 0 0 4.872-9.036 4.907-9.036v9.035c0 .346.276.59.656.59h1.52c.38 0 .692-.175.692-.694V13.776c0-.38-.31-.692-.69-.692h-2.04c-.52 0-.83.277-1.002.588l-4.078 7.2zM.104 19.938C.104 26.654 6.946 27 8.328 27c4.56 0 6.462-1.246 6.565-1.28.277-.174.622-.485.622-1.108v-4.64c0-.414-.345-.76-.76-.76H9.02c-.416 0-.692.346-.692.76v.486c0 .415.276.76.69.76h3.318c.31 0 .588.278.588.59v2.146c-.657.277-3.63 1.142-6.013.554-3.455-.83-3.73-3.704-3.73-4.57 0-.726.206-4.326 4.49-4.707 3.457-.31 5.703 1.108 5.737 1.108.415.208.83.07 1.037-.38l.415-.866c.17-.346.102-.727-.312-1.038-.035 0-2.454-1.316-6.186-1.316-8.016.07-8.258 6.474-8.258 7.2zM91.916 9.658h-8.984c-.346 0-.622-.173-.76-.45-.173-.277-.173-.623 0-.9l4.492-7.79c.173-.276.45-.45.76-.45.346 0 .622.174.76.45l4.492 7.79c.173.277.173.623 0 .9-.172.277-.45.45-.76.45zM97.756 24.37c.69 0 1.244.553 1.244 1.245 0 .693-.553 1.247-1.244 1.247-.69 0-1.244-.554-1.244-1.247 0-.692.553-1.246 1.244-1.246zm0 2.284c.587 0 1.002-.45 1.002-1.073 0-.588-.415-1.072-1.002-1.072s-1.002.45-1.002 1.073c0 .624.415 1.074 1.002 1.074zm-.484-1.8h.553c.346 0 .484.138.484.415 0 .242-.14.415-.38.415l.413.657h-.24l-.416-.657h-.207v.657h-.208v-1.488zm.242.658h.277c.173 0 .312-.035.312-.243 0-.174-.14-.208-.31-.208h-.278v.45z"/>
  </g>
</svg>