<?xml version="1.0" encoding="utf-8"?>
<!-- Generator: Adobe Illustrator 19.0.1, SVG Export Plug-In . SVG Version: 6.00 Build 0)  -->
<svg version="1.1" id="Layer_1" xmlns:sketch="http://www.bohemiancoding.com/sketch/ns"
	 xmlns="http://www.w3.org/2000/svg" xmlns:xlink="http://www.w3.org/1999/xlink" x="0px" y="0px" viewBox="-92 -47 426 886"
	 style="enable-background:new -92 -47 426 886;" xml:space="preserve">
<style type="text/css">
	.st0{fill:#FFFFFF;}
</style>
<title>icon-phone</title>
<desc>Created with Sketch.</desc>
<path class="st0" d="M265.2-41.5V-45c0-1.1-0.9-2-2-2h-63.9c-1.1,0-2,0.9-2,2v3.4h-211c-40.3,0-73,32.7-73,73v50.3H-90
	c-1.1,0-2,0.9-2,2v37.1c0,1.1,0.9,2,2,2h3.4v35.7H-90c-1.1,0-2,0.9-2,2v22.8c0,1.1,0.9,2,2,2h3.4v38.4H-90c-1.1,0-2,0.9-2,2v22.8
	c0,1.1,0.9,2,2,2h3.4V766c0,40.3,32.7,73,73,73H261c40.3,0,73-32.7,73-73V31.4C334-7.5,303.6-39.3,265.2-41.5z M63.9,44.5h118.8
	c5.5,0,10,5.6,10,10s-4.5,10-10,10H63.9c-5.5,0-10-5.6-10-10S58.4,44.5,63.9,44.5z M121,776.7c-20.3,0-36.8-16.5-36.8-36.8
	s16.5-36.8,36.8-36.8s36.8,16.5,36.8,36.8S141.3,776.7,121,776.7z M301,628.8H-54.5V145.4H301V628.8z"/>
</svg>
