<?xml version="1.0" encoding="utf-8"?>
<!-- Generator: Adobe Illustrator 19.0.1, SVG Export Plug-In . SVG Version: 6.00 Build 0)  -->
<svg version="1.1" id="Layer_1" xmlns="http://www.w3.org/2000/svg" xmlns:xlink="http://www.w3.org/1999/xlink" x="0px" y="0px"
	 viewBox="-295.5 390 16.9 14" style="enable-background:new -295.5 390 16.9 14;" xml:space="preserve">
<style type="text/css">
	.st0{fill:#FFFFFF;}
</style>
<title>download</title>
<desc>Created with Sketch.</desc>
<path class="st0" d="M-294.6,399.2c-0.4,1.1-0.7,2.2-0.6,3.4c0,0.5,0.1,0.9,0.2,1.3c0.8-1.3,1.6-2.5,2.9-3.3
	c1.2-0.8,3.1-1.6,4.5-1.7c0.5,0,1,0,1.5,0v3.6l0,0c1.9-1.6,3.8-3.3,5.7-4.9c0.5-0.4,1.6-1.4,1.6-1.4l-7.4-6.1v3.6
	c-1.9,0-3.8,0.5-5.4,1.7C-292.7,396.2-294,397.8-294.6,399.2z"/>
</svg>
