<?xml version="1.0" encoding="utf-8"?>
<!-- Generator: Adobe Illustrator 19.0.1, SVG Export Plug-In . SVG Version: 6.00 Build 0)  -->
<svg version="1.1" id="Layer_1" xmlns="http://www.w3.org/2000/svg" xmlns:xlink="http://www.w3.org/1999/xlink" x="0px" y="0px"
	 viewBox="473 254.7 674 518.8" style="enable-background:new 473 254.7 674 518.8;" xml:space="preserve">
<style type="text/css">
	.st0{fill:#FFFFFF;}
</style>
<path class="st0" d="M1147,316.1c-23.6,10.5-48.8,17.5-75.1,20.5c27.1-16.1,47.8-41.8,57.6-72.3c-25.2,14.9-53.2,25.9-83.1,31.7
	c-23.8-25.4-57.9-41.3-95.4-41.3c-72.6,0-131.1,58.6-131.1,130.9c0,10.3,1.2,20.3,3.5,29.9c-108.7-5.4-205.1-57.6-269.7-136.7
	c-11.2,19.4-17.7,41.8-17.7,65.8c0,45.5,23.1,85.4,58.3,109c-21.5-0.7-41.5-6.5-59.3-16.3v1.6c0,63.5,45,116.2,105,128.3
	c-11,3-22.6,4.7-34.5,4.7c-8.4,0-16.6-0.9-24.7-2.3c16.6,52,65.1,89.8,122.3,91c-44.8,35-101.3,56-162.6,56c-10.5,0-21-0.7-31.3-1.9
	c57.9,37.1,126.7,58.8,200.7,58.8c240.8,0,372.4-199.5,372.4-372.4c0-5.6-0.2-11.4-0.5-17C1107.3,365.6,1129.5,342.5,1147,316.1
	L1147,316.1z"/>
</svg>
