<?xml version="1.0" encoding="utf-8"?>
<!-- Generator: Adobe Illustrator 19.0.1, SVG Export Plug-In . SVG Version: 6.00 Build 0)  -->
<svg version="1.1" id="Layer_1" xmlns:sketch="http://www.bohemiancoding.com/sketch/ns"
	 xmlns="http://www.w3.org/2000/svg" xmlns:xlink="http://www.w3.org/1999/xlink" x="0px" y="0px" viewBox="-269 323 72 147"
	 style="enable-background:new -269 323 72 147;" xml:space="preserve">
<style type="text/css">
	.st0{fill:#FFFDFD;}
</style>
<title>icon-facebook</title>
<desc>Created with Sketch.</desc>
<g id="Page-1" sketch:type="MSPage">
	<path id="icon-facebook" sketch:type="MSShapeGroup" class="st0" d="M-217,323.2h5.2c0.1,0,0.2,0,0.3,0c2.1,0.1,4.2,0.1,6.4,0.3
		c1.9,0.1,3.8,0.3,5.8,0.5c0.6,0.1,1.3,0.1,1.9,0.2c-0.2,7.8-0.4,15.6-0.6,23.4h-0.4c-5.5,0-11,0-16.4-0.1c-1.3,0-2.6,0.2-3.9,0.5
		c-2.3,0.6-4,2-4.7,4.3c-0.5,1.5-0.7,3.1-0.7,4.7c0,6.3,0,12.6,0,18.8c0,0.1,0,0.1,0,0.2h26.8c-0.4,8.4-0.8,16.7-1.2,25.1h-25.7
		v68.7h-26.5v-68.7h-0.3c-5.8,0-11.7,0-17.5,0c-0.1,0-0.2,0-0.3,0v-24.9c6,0,12,0,18,0c0.1,0,0.1,0,0.2,0v-0.4c0-6.8,0-13.6,0-20.4
		c0-1.6,0.1-3.2,0.3-4.8c0.2-2.4,0.8-4.8,1.7-7.1c1.7-4.7,4.3-8.7,8.1-12c3.6-3.2,7.8-5.3,12.4-6.6c3.2-0.9,6.5-1.4,9.8-1.6
		C-217.9,323.3-217.4,323.2-217,323.2"/>
</g>
</svg>
