<?xml version="1.0" encoding="utf-8"?>
<!-- Generator: Adobe Illustrator 19.0.1, SVG Export Plug-In . SVG Version: 6.00 Build 0)  -->
<svg version="1.1" id="Layer_1" xmlns:sketch="http://www.bohemiancoding.com/sketch/ns"
	 xmlns="http://www.w3.org/2000/svg" xmlns:xlink="http://www.w3.org/1999/xlink" x="0px" y="0px" viewBox="116 -171 843 1135"
	 style="enable-background:new 116 -171 843 1135;" xml:space="preserve">
<style type="text/css">
	.st0{fill:#FFFFFF;}
</style>
<title>icon-tablet</title>
<desc>Created with Sketch.</desc>
<path class="st0" d="M904.7-171H170.2c-29.8,0-54,24.2-54,54V909.6c0,29.8,24.2,54,54,54h734.5c29.8,0,54-24.2,54-54V-117
	C958.7-146.8,934.5-171,904.7-171z M543.7-114.3c0-10.4,8.4-18.9,18.9-18.9c10.4,0,18.9,8.4,18.9,18.9v0.1
	c0,10.4-8.4,18.9-18.9,18.9c-10.4,0-18.9-8.4-18.9-18.9V-114.3z M506-114.6c0-3.3,2.7-6,6-6h0.6c3.3,0,6,2.7,6,6v0.6
	c0,3.3-2.7,6-6,6H512c-3.3,0-6-2.7-6-6V-114.6z M537.4,938.4c-17.4,0-31.4-14.1-31.4-31.5s14.1-31.5,31.4-31.5s31.4,14.1,31.4,31.5
	S554.8,938.4,537.4,938.4z M908.4,850.2H166.5V-57.5h741.9V850.2z"/>
</svg>
