<?xml version="1.0" encoding="UTF-8" standalone="no"?>
<svg width="60px" height="61px" viewBox="0 0 60 61" version="1.1" xmlns="http://www.w3.org/2000/svg" xmlns:xlink="http://www.w3.org/1999/xlink">
    <!-- Generator: Sketch 39.1 (31720) - http://www.bohemiancoding.com/sketch -->
    <title>icon-plus</title>
    <desc>Created with Sketch.</desc>
    <defs></defs>
    <g id="Page-1" stroke="none" stroke-width="1" fill="none" fill-rule="evenodd">
        <g id="pre-click-copy" transform="translate(-1076.000000, -1062.000000)" fill="#FFFFFF">
            <g id="icon-plus" transform="translate(1076.000000, 1062.000000)">
                <path d="M0,30.0085638 C0,13.4352917 13.4278145,0 30,0 C46.5685425,0 60,13.4244495 60,30.0085638 L60,30.9914362 C60,47.5647083 46.5721855,61 30,61 C13.4314575,61 0,47.5755505 0,30.9914362 L0,30.0085638 Z M20.3188477,33.5566406 L20.3188477,28.8413086 L27.7260742,28.8413086 L27.7260742,21.434082 L32.4775391,21.434082 L32.4775391,28.8413086 L39.8847656,28.8413086 L39.8847656,33.5566406 L32.4775391,33.5566406 L32.4775391,41 L27.7260742,41 L27.7260742,33.5566406 L20.3188477,33.5566406 Z" id="Combined-Shape"></path>
            </g>
        </g>
    </g>
</svg>