<?xml version="1.0" encoding="UTF-8" standalone="no"?>
<svg width="18px" height="14px" viewBox="0 0 18 14" version="1.1" xmlns="http://www.w3.org/2000/svg" xmlns:xlink="http://www.w3.org/1999/xlink">
    <!-- Generator: Sketch 3.7.2 (28276) - http://www.bohemiancoding.com/sketch -->
    <title>download</title>
    <desc>Created with Sketch.</desc>
    <defs></defs>
    <g id="Page-1" stroke="none" stroke-width="1" fill="none" fill-rule="evenodd">
        <path d="M4.96734007,7.07061245 C4.36800931,6.53218984 4,5.80293202 4,5 C4,3.34314567 5.56700328,2 7.5,2 C9.43299672,2 11,3.34314567 11,5 C11,5.11770188 10.992092,5.23382061 10.9767065,5.34798711 C11.4372288,5.12501712 11.9540148,5 12.5,5 C14.4329967,5 16,6.56700328 16,8.5 C16,10.263236 14.6961471,11.7219408 13,11.9645556 L13,12 L4,12 C2.89543045,12 2,11.1045696 2,10 C2,8.89543045 2.89543045,8 4,8 C4.16300524,8 4.32145586,8.01950064 4.47314622,8.05629628 L4.96734007,7.07061245 Z M4,14 C1.79086089,14 0,12.2091391 0,10 C0,8.42898653 0.905681592,7.06950646 2.22340625,6.4151983 C2.0780165,5.9664812 2,5.49152321 2,5 C2,2.23857611 4.46243373,0 7.5,0 C9.75541929,0 11.693757,1.23416982 12.542429,3.00016024 C15.5604635,3.02296318 18,5.47658928 18,8.5 C18,11.3690214 15.8032501,13.7249641 13,13.9775785 L13,14 L4,14 Z M8,5 L8,8 L10,8 L10,5 L8,5 Z M9,11 L12,8 L6,8 L9,11 Z" id="download" fill="#FFFFFF"></path>
    </g>
</svg>