<?xml version="1.0" encoding="utf-8"?>
<!-- Generator: Adobe Illustrator 19.0.1, SVG Export Plug-In . SVG Version: 6.00 Build 0)  -->
<svg version="1.1" id="Layer_1" xmlns:sketch="http://www.bohemiancoding.com/sketch/ns"
	 xmlns="http://www.w3.org/2000/svg" xmlns:xlink="http://www.w3.org/1999/xlink" x="0px" y="0px" viewBox="621 -359 1853 1511"
	 style="enable-background:new 621 -359 1853 1511;" xml:space="preserve">
<style type="text/css">
	.st0{fill:#FFFFFF;}
</style>
<title>icon-desktop</title>
<desc>Created with Sketch.</desc>
<g id="::-screen" transform="translate(611.749348, 1025.749348)">
	<g id="::-contents" transform="translate(0.996646, 0.243944)">
	</g>
</g>
<path class="st0" d="M2435.8-358.6H659.2c-21,0-38,17-38,38V814.6c0,21,17,38,38,38h693.5c0,0-7.6,156.7-17.1,193
	c-9.5,36.3-45.2,56.3-64.2,70.6h3.2c-2.2,0-4.6,1.7-5.4,3.7l-6.7,17.6v14.2h570v-14.2l-6.7-17.6c-0.8-2.1-3.2-3.7-5.4-3.7h3.2
	c-19-14.2-50.5-33.7-61.9-70.6c-11.4-36.9-19.5-193-19.5-193h693.5c21,0,38-17,38-38V-320.6C2473.8-341.6,2456.8-358.6,2435.8-358.6
	z M1583.1-309.8c0-3.3,2.7-6,6-6h2.2c3.3,0,6,2.7,6,6v2.2c0,3.3-2.7,6-6,6h-2.2c-3.3,0-6-2.7-6-6V-309.8z M1547.4-323
	c7.9,0,14.2,6.4,14.2,14.2c0,7.9-6.4,14.2-14.2,14.2c-7.9,0-14.2-6.4-14.2-14.2S1539.6-323,1547.4-323z M1497.6-309.8
	c0-3.3,2.7-6,6-6h2.2c3.3,0,6,2.7,6,6v2.2c0,3.3-2.7,6-6,6h-2.2c-3.3,0-6-2.7-6-6V-309.8z M2276.2,645H829.1v-849.9h1447.1V645z"/>
</svg>
