<?xml version="1.0" encoding="utf-8"?>
<!-- Generator: Adobe Illustrator 19.0.1, SVG Export Plug-In . SVG Version: 6.00 Build 0)  -->
<svg version="1.1" id="Layer_1" xmlns="http://www.w3.org/2000/svg" xmlns:xlink="http://www.w3.org/1999/xlink" x="0px" y="0px"
	 viewBox="-246 382.8 118.2 28.2" style="enable-background:new -246 382.8 118.2 28.2;" xml:space="preserve">
<style type="text/css">
	.st0{fill:#FFFFFF;}
</style>
<g>
	<path class="st0" d="M-235.7,405.1c-2.2,0-3.6-0.6-4.8-2.1v7.1h-3.3v-21.2h2.4l0.3,2.7c0.9-2.1,3-3.1,5.1-3.1
		c3.4,0,5.7,2.5,5.7,6.1v4.7C-230.4,402.5-232.8,405.1-235.7,405.1z M-233.7,394.9c0-2.5-1.2-3.7-3.3-3.7c-1.8,0-3.4,1.3-3.4,3.7v4
		c0,2.3,1.5,3.6,3.4,3.6c2.1,0,3.3-1.3,3.3-3.8V394.9z"/>
	<path class="st0" d="M-217.8,392c-3.8-0.6-5.4,0.6-5.4,2.4v10.4h-3.4v-15.9h2.9l0.2,3.5c1.1-3.2,2.8-4,5.7-3.6V392z"/>
	<path class="st0" d="M-209,405.1c-4,0-6.7-2.5-6.7-6.4v-3.6c0-3.8,2.5-6.5,6.6-6.5c4.1,0,6.4,2.7,6.4,6.5v2h-9.7v2.2
		c0,1.9,1.3,3.2,3.6,3.2c2.1,0,3.2-1.2,3.2-2.6v-0.3h3v0.1C-202.6,403-205.4,405.1-209,405.1z M-205.7,394.2c0-1.7-1.2-3.1-3.3-3.1
		s-3.3,1.3-3.3,3.1v1h6.6V394.2z"/>
	<path class="st0" d="M-182,404.8v-11.1c0-1.6-0.6-2.6-2-2.6c-2.3,0-3.1,3.2-3.1,4.9v8.8h-3.4v-11.1c0-1.6-0.6-2.6-2-2.6
		c-2.3,0-3.1,3.2-3.1,4.9v8.8h-3.4v-15.9h2.9l0.1,3.5c1.2-2.9,3-3.9,5-3.9s3.3,1.4,3.8,3.5c1.2-2.5,2.7-3.5,4.8-3.5c2.6,0,4,2,4,5
		v11.3H-182z"/>
	<path class="st0" d="M-174.3,404.8v-15.9h3.4v15.9H-174.3z M-174.2,386.1v-3.2h3.2v3.2H-174.2z"/>
	<path class="st0" d="M-156.1,404.8l-0.2-3.6c-1.2,2.7-3,3.9-5.3,3.9c-3.3,0-5-2.1-5-5.3v-10.9h3.4v10.7c0,1.9,1,2.9,2.7,2.9
		c2.2,0,3.8-2.9,3.8-4.8v-8.8h3.4v15.9H-156.1z"/>
	<path class="st0" d="M-131.9,404.8v-11.1c0-1.6-0.6-2.6-2-2.6c-2.3,0-3.1,3.2-3.1,4.9v8.8h-3.4v-11.1c0-1.6-0.6-2.6-2-2.6
		c-2.3,0-3.1,3.2-3.1,4.9v8.8h-3.5v-15.9h2.9l0.1,3.6c1.2-2.9,3-3.9,5-3.9s3.3,1.4,3.8,3.5c1.2-2.5,2.7-3.5,4.8-3.5c2.6,0,4,2,4,5
		v11.2H-131.9z"/>
</g>
</svg>
