<?xml version="1.0" encoding="utf-8"?>
<!-- Generator: Adobe Illustrator 19.0.1, SVG Export Plug-In . SVG Version: 6.00 Build 0)  -->
<svg version="1.1" id="Layer_1" xmlns="http://www.w3.org/2000/svg" xmlns:xlink="http://www.w3.org/1999/xlink" x="0px" y="0px"
	 viewBox="0 0 297.2 24.5" style="enable-background:new 0 0 297.2 24.5;" xml:space="preserve">
<style type="text/css">
	.st0{fill:#FFFFFF;}
</style>
<g>
	<path class="st0" d="M17.5,7.2H17c-0.8-4.7-2.6-6.5-6.6-6.3H6.3v11h2.2c3.2,0.1,3.9-0.6,4-4V7.2h0.5v9.8h-0.5v-0.8
		c-0.1-2.8-1.2-3.8-4.1-3.7H6.3v11.3h3.4v0.7h-9.9v-0.7h3.2v-23h-3.2V0.2H17L17.5,7.2z"/>
	<path class="st0" d="M37.8,3.8c1.8,2.3,2.7,5.2,2.7,8.7c0,7-4.6,12.4-10.3,12.4c-3,0-5.6-1.4-7.7-4c-1.8-2.3-2.7-5.2-2.7-8.6
		c0-3.6,1.1-6.8,3.1-9.1c2-2.2,4.5-3.4,7.2-3.4C33.1-0.1,35.8,1.3,37.8,3.8z M24.5,4.8C24.1,6.1,24,7.6,24,12.4
		c0,5.3,0.1,6.7,0.7,8.2c0.8,2.2,2.9,3.6,5.5,3.6c2.8,0,5-1.5,5.7-4.2c0.4-1.3,0.5-2.8,0.5-7.5c0-5.5-0.1-6.9-0.7-8.4
		c-0.8-2.2-3-3.5-5.5-3.5C27.3,0.6,25.2,2.1,24.5,4.8z"/>
	<path class="st0" d="M50,23.9h3.4v0.7h-9.9v-0.7h3.2v-23h-3.2V0.2h9.9c3.4,0,4.9,0.3,6.3,1.2c1.5,1,2.3,2.5,2.3,4.4
		c0,1.6-0.7,3-2.1,4.1c-1.3,1.1-2.6,1.5-5.4,1.8c4.3,0.6,6.6,2.9,6.7,6.8v2c0,1.3,0.1,1.9,0.3,2.4c0.3,0.5,0.9,0.9,1.5,0.9
		c0.4,0,0.8-0.1,1.5-0.5l0.2,0.6c-1,0.5-1.5,0.6-2.6,0.6c-1.6,0-2.8-0.5-3.7-1.7c-0.9-1.1-1.2-2.4-1.2-4.5v-1.8
		c-0.1-3.4-1.5-4.7-5.1-4.8H50V23.9z M52.3,11.3c3.9,0,5.8-1.7,5.8-5.2c0-3.6-1.7-5.2-5.6-5.2H50v10.4H52.3z"/>
	<path class="st0" d="M90,6.2h-0.7c-0.2-1.6-0.5-2.4-1.1-3.3c-1.1-1.5-2.7-2.3-4.7-2.3c-2.7,0-4.7,2-4.7,4.4c0,2.1,1.3,3.2,4.9,4.1
		l1.9,0.5c4,1,5.8,3.2,5.8,7c0,4.9-2.9,8.2-7.1,8.2c-2.2,0-3.7-0.7-5.6-2.4l-1.3,2h-0.5L76.5,17h0.7c0.3,2,0.6,3,1.3,4
		c1.3,2,3.4,3.1,5.6,3.1c3.2,0,5.3-2.2,5.3-5.4c0-2.6-1.3-4-4.5-4.8l-2.8-0.7c-3.6-1-5.2-2.9-5.2-6.2c0-4.1,2.9-7.2,6.6-7.2
		c1.6,0,3.1,0.5,4.7,1.6l1.1-1.6h0.5L90,6.2z"/>
	<path class="st0" d="M105.3,23.9h3.6v0.7H98.2v-0.7h3.6v-23h-1.7c-2.4,0-3.2,0.4-4.5,2.3c-0.8,1.3-1.2,2.6-1.7,4.7l-0.5-0.1
		l0.3-7.6h19.5l0.5,7.6l-0.5,0.1c-1.5-5.4-2.9-7-6.2-7h-1.8V23.9z"/>
	<path class="st0" d="M133.7,6.8h-0.5c-1.1-4.8-2.6-6-7.5-5.9h-3.1v11h1.7c2.8,0,3.9-1.1,3.9-3.9V7.3h0.5v10h-0.5v-0.8
		c0-2.8-1.2-4-4-3.9h-1.6v11.3h4.8c3.3,0,4-0.3,5.4-2.7c0.5-0.9,0.9-2.3,1.5-4.2h0.5l-0.7,7.6h-18v-0.7h3.2v-23H116V0.2h17.2
		L133.7,6.8z"/>
	<path class="st0" d="M143.9,23.9h3.4v0.7h-9.9v-0.7h3.2v-23h-3.2V0.2h10.2c3,0,5,0.5,6.4,1.7c1.4,1.2,2.3,2.9,2.3,4.7
		c0,1.8-0.9,3.4-2.4,4.6c-1.4,1.1-3.4,1.6-6.2,1.6h-3.6V23.9z M147.3,12.1c3.7,0,4.7-1.2,4.7-5.6s-1-5.6-4.8-5.6h-3.4v11.2H147.3z"
		/>
	<path class="st0" d="M172.3,6.2h-0.7c-0.2-1.6-0.5-2.4-1.1-3.3c-1.1-1.5-2.7-2.3-4.7-2.3c-2.7,0-4.7,2-4.7,4.4
		c0,2.1,1.3,3.2,4.9,4.1l1.9,0.5c4,1,5.8,3.2,5.8,7c0,4.9-2.9,8.2-7.1,8.2c-2.2,0-3.7-0.7-5.6-2.4l-1.3,2h-0.5l-0.3-7.5h0.7
		c0.3,2,0.6,3,1.3,4c1.3,2,3.4,3.1,5.6,3.1c3.2,0,5.3-2.2,5.3-5.4c0-2.6-1.3-4-4.5-4.8l-2.8-0.7c-3.6-1-5.2-2.9-5.2-6.2
		c0-4.1,2.9-7.2,6.6-7.2c1.6,0,3.1,0.5,4.7,1.6l1.1-1.6h0.5L172.3,6.2z"/>
	<path class="st0" d="M196.8,23.9h3.6v0.7h-10.7v-0.7h3.6v-23h-1.7c-2.4,0-3.2,0.4-4.5,2.3c-0.8,1.3-1.2,2.6-1.7,4.7L185,7.8
		l0.3-7.6h19.5l0.5,7.6l-0.5,0.1c-1.5-5.4-2.9-7-6.2-7h-1.8V23.9z"/>
	<path class="st0" d="M210.5,16.7l-2.4,7.1h3.2v0.7h-6.4v-0.7h2.3l8.3-23.6h1l8,23.6h2.8v0.7h-9.9v-0.7h3.5l-2.4-7.1H210.5z
		 M214.4,5.3l-3.6,10.7h7.3L214.4,5.3z"/>
	<path class="st0" d="M231.3,0.9h-3.2V0.2h9.7v0.7h-3.1v23h3.1v0.7h-9.7v-0.7h3.2V0.9z M249,23.9h1.9v0.7h-9.5v-0.7h3.2l-9.2-12.2
		l9.7-10.8h-3.5V0.2h7.7v0.7h-3.1l-7.9,8.8L249,23.9z"/>
	<path class="st0" d="M270.8,6.8h-0.5c-1.1-4.8-2.6-6-7.5-5.9h-3.1v11h1.7c2.8,0,3.9-1.1,3.9-3.9V7.3h0.5v10h-0.5v-0.8
		c0-2.8-1.2-4-4-3.9h-1.6v11.3h4.8c3.3,0,4-0.3,5.4-2.7c0.5-0.9,0.9-2.3,1.5-4.2h0.5l-0.7,7.6h-18v-0.7h3.2v-23h-3.2V0.2h17.2
		L270.8,6.8z"/>
	<path class="st0" d="M278.1,1.1v22.8h3.4v0.7h-7.4v-0.7h3.2v-23h-3.2V0.2h7.7l11.5,17.6V0.9h-3.2V0.2h6.7v0.7h-2.7v23.6h-0.6
		L278.1,1.1z"/>
</g>
</svg>
