<?xml version="1.0" encoding="utf-8"?>
<!-- Generator: Adobe Illustrator 19.0.1, SVG Export Plug-In . SVG Version: 6.00 Build 0)  -->
<svg version="1.1" id="Layer_1" xmlns="http://www.w3.org/2000/svg" xmlns:xlink="http://www.w3.org/1999/xlink" x="0px" y="0px"
	 viewBox="0 0 118.2 28.2" style="enable-background:new 0 0 118.2 28.2;" xml:space="preserve">
<style type="text/css">
	.st0{fill:#FFFFFF;}
</style>
<g>
	<path class="st0" d="M8.3,22.3c-4,0-6.7-2.6-6.7-6.5v-3.4c0-4,2.8-6.6,6.7-6.6c3.6,0,6.2,2,6.2,5.8v0.1h-3v-0.4
		c0-1.7-1.3-2.8-3.2-2.8c-2.1,0-3.5,1.4-3.5,3.6v3.8c0,2.4,1.4,3.7,3.5,3.7c1.8,0,3.2-1.1,3.2-2.9v-0.4h3v0.1
		C14.6,20.2,11.9,22.3,8.3,22.3z"/>
	<path class="st0" d="M18,22V-0.7h3.4V22H18z"/>
	<path class="st0" d="M37.9,22.3c-1.4,0-2.7-0.6-2.7-2.5c-1.2,1.6-3.2,2.5-5.4,2.5c-3,0-5.1-1.7-5.1-4.5v-0.2c0-4.1,4.7-5.2,9.6-4.9
		v-1.6c0-1.7-0.9-2.7-2.8-2.7c-1.9,0-3.1,0.7-3.1,2.4v0.1h-3v-0.2c0-2.7,2.1-5,6-5c4.4,0,6.1,2.5,6.1,6v6.9c0,0.7,0.3,1.1,1.4,1.1
		v2.5H37.9z M34.4,14.8c-4.2-0.3-6.4,0.6-6.4,2.7v0.1c0,1.1,0.9,2,2.4,2c1.9,0,3.9-1.2,3.9-2.8V14.8z"/>
	<path class="st0" d="M47.6,22.3c-3.9,0-6.5-2.2-6.5-5.1v-0.5h3v0.2c0,2.1,1.6,2.9,3.5,2.9c2,0,3-0.8,3-2.1c0-3.7-9.1-1.4-9.1-7.2
		c0-2.4,2.3-4.7,6-4.7c3.7,0,6.1,2,6.1,5V11h-3v-0.2c0-1.4-1.1-2.5-3.1-2.5c-1.8,0-2.9,0.8-2.9,1.8c0,3.3,9.1,1.2,9.1,7.2
		C53.8,19.8,51.8,22.3,47.6,22.3z"/>
	<path class="st0" d="M62.5,22.3c-3.9,0-6.5-2.2-6.5-5.1v-0.5h3v0.2c0,2.1,1.6,2.9,3.5,2.9c2,0,3-0.8,3-2.1c0-3.7-9.1-1.4-9.1-7.2
		c0-2.4,2.3-4.7,6-4.7c3.7,0,6.1,2,6.1,5V11h-3v-0.2c0-1.4-1.1-2.5-3.1-2.5c-1.8,0-2.9,0.8-2.9,1.8c0,3.3,9.1,1.2,9.1,7.2
		C68.7,19.8,66.7,22.3,62.5,22.3z"/>
	<path class="st0" d="M72.1,22V6.1h3.4V22H72.1z M72.2,3.3V0.1h3.2v3.2H72.2z"/>
	<path class="st0" d="M86,22.3c-4,0-6.7-2.6-6.7-6.5v-3.4c0-4,2.8-6.6,6.7-6.6c3.6,0,6.2,2,6.2,5.8v0.1h-3v-0.4
		c0-1.7-1.3-2.8-3.2-2.8c-2.1,0-3.5,1.4-3.5,3.6v3.8c0,2.4,1.4,3.7,3.5,3.7c1.8,0,3.2-1.1,3.2-2.9v-0.4h3v0.1
		C92.3,20.2,89.6,22.3,86,22.3z"/>
</g>
</svg>
