<?xml version="1.0" encoding="utf-8"?>
<!-- Generator: Adobe Illustrator 19.0.1, SVG Export Plug-In . SVG Version: 6.00 Build 0)  -->
<svg version="1.1" id="Layer_1" xmlns="http://www.w3.org/2000/svg" xmlns:xlink="http://www.w3.org/1999/xlink" x="0px" y="0px"
	 viewBox="0 0 118.2 28.2" style="enable-background:new 0 0 118.2 28.2;" xml:space="preserve">
<style type="text/css">
	.st0{fill:#FFFFFF;}
</style>
<g>
	<path class="st0" d="M7.7,22.3c-3.9,0-6.5-2.2-6.5-5.1v-0.5h3v0.2c0,2.1,1.6,2.9,3.5,2.9c2,0,3-0.8,3-2.1c0-3.7-9.1-1.4-9.1-7.2
		c0-2.4,2.3-4.7,6-4.7c3.7,0,6.1,2,6.1,5V11h-3v-0.2c0-1.4-1.1-2.5-3.1-2.5c-1.8,0-2.9,0.8-2.9,1.8c0,3.3,9.1,1.2,9.1,7.2
		C13.9,19.8,11.8,22.3,7.7,22.3z"/>
	<path class="st0" d="M25.4,22.3c-2.2,0-3.6-0.6-4.8-2.1v7.1h-3.4V6.1h2.4l0.3,2.7c0.9-2.1,3-3.1,5.1-3.1c3.4,0,5.7,2.5,5.7,6.1v4.7
		C30.7,19.7,28.3,22.3,25.4,22.3z M27.3,12.1c0-2.5-1.2-3.7-3.3-3.7c-1.8,0-3.4,1.3-3.4,3.7v4c0,2.3,1.5,3.6,3.4,3.6
		c2.1,0,3.3-1.3,3.3-3.8V12.1z"/>
	<path class="st0" d="M40.7,22.3c-4,0-6.7-2.4-6.7-6.5v-3.5c0-4.1,2.8-6.6,6.7-6.6c3.9,0,6.7,2.5,6.7,6.6v3.5
		C47.4,19.9,44.6,22.3,40.7,22.3z M44.1,11.9c0-2.1-1.2-3.5-3.4-3.5c-2.2,0-3.4,1.4-3.4,3.5v4.2c0,2.2,1.2,3.5,3.4,3.5
		c2.2,0,3.4-1.4,3.4-3.5V11.9z"/>
	<path class="st0" d="M60,9.2c-3.8-0.6-5.4,0.6-5.4,2.4V22h-3.4V6.1h2.9l0.2,3.5c1.1-3.2,2.8-4,5.7-3.6V9.2z"/>
	<path class="st0" d="M67.6,8.8v8c0,2,0.4,3.7,1.4,5.1h-3.7c-0.8-1.3-1.1-2.8-1.1-5.1v-8h-2.4V6.2h2.6V3.3l3.3-1.1v4h3v2.6H67.6z"/>
</g>
</svg>
