<?xml version="1.0" encoding="utf-8"?>
<!-- Generator: Adobe Illustrator 19.0.1, SVG Export Plug-In . SVG Version: 6.00 Build 0)  -->
<svg version="1.1" id="Layer_1" xmlns="http://www.w3.org/2000/svg" xmlns:xlink="http://www.w3.org/1999/xlink" x="0px" y="0px"
	 viewBox="0 0 68.2 14.9" style="enable-background:new 0 0 68.2 14.9;" xml:space="preserve">
<style type="text/css">
	.st0{clip-path:url(#SVGID_2_);fill:#D0181F;}
	.st1{fill:#FFFFFF;}
	.st2{clip-path:url(#SVGID_4_);fill:#FFFFFF;}
	.st3{clip-path:url(#SVGID_6_);fill:#FFFFFF;}
</style>
<g>
	<defs>
		<rect id="SVGID_1_" y="0" width="68.2" height="14.9"/>
	</defs>
	<clipPath id="SVGID_2_">
		<use xlink:href="#SVGID_1_"  style="overflow:visible;"/>
	</clipPath>
	<path class="st0" d="M6,0c0,0-6,0-6,6v2.9c0,0,0,6,6,6h56.2c0,0,6,0,6-6V6c0,0,0-6-6-6H6z"/>
</g>
<rect x="14.5" y="5.3" class="st1" width="0.5" height="5.2"/>
<polygon class="st1" points="10.9,5.4 8.9,10.5 8.6,10.5 6.6,5.4 7.1,5.2 8.8,9.5 10.4,5.2 "/>
<polygon class="st1" points="59.2,5.5 59.2,7.5 61.6,7.5 61.6,8 59.2,8 59.2,10 61.6,10 61.6,10.5 58.7,10.5 58.7,5 61.6,5 
	61.6,5.5 "/>
<g>
	<defs>
		<rect id="SVGID_3_" y="0" width="68.2" height="14.9"/>
	</defs>
	<clipPath id="SVGID_4_">
		<use xlink:href="#SVGID_3_"  style="overflow:visible;"/>
	</clipPath>
	<path class="st2" d="M45.7,10c-1.2,0-2.2-1-2.2-2.2c0-1.2,1-2.2,2.2-2.2c1.2,0,2.2,1,2.2,2.2C47.9,9,46.9,10,45.7,10 M45.7,5
		c-1.5,0-2.7,1.2-2.7,2.7c0,1.5,1.2,2.7,2.7,2.7c1.5,0,2.7-1.2,2.7-2.7C48.4,6.2,47.2,5,45.7,5"/>
</g>
<polygon class="st1" points="55.4,5.4 53.5,10.5 53.1,10.5 51.2,5.4 51.6,5.2 53.3,9.5 54.9,5.2 "/>
<polygon class="st1" points="22.7,5.4 20.8,10.5 20.4,10.5 18.5,5.4 19,5.2 20.6,9.5 22.3,5.2 "/>
<g>
	<defs>
		<rect id="SVGID_5_" y="0" width="68.2" height="14.9"/>
	</defs>
	<clipPath id="SVGID_6_">
		<use xlink:href="#SVGID_5_"  style="overflow:visible;"/>
	</clipPath>
	<path class="st3" d="M28.2,10C27,10,26,9,26,7.7c0-1.2,1-2.2,2.2-2.2c1.2,0,2.2,1,2.2,2.2C30.4,9,29.4,10,28.2,10 M28.2,5
		c-1.5,0-2.7,1.2-2.7,2.7c0,1.5,1.2,2.7,2.7,2.7c1.5,0,2.7-1.2,2.7-2.7C31,6.2,29.7,5,28.2,5"/>
</g>
<polygon class="st1" points="39.6,5 39.6,10.5 39.1,10.5 39.1,6.3 37,9.7 35,6.3 35,10.5 34.5,10.5 34.5,5 34.9,5 37,8.7 39.2,5 "/>
<path class="st1" d="M63.2,4h-0.4V3.9h1V4h-0.4v1.1h-0.2V4z M65.2,3.9h0.3v1.2h-0.2V4h0l-0.5,1.1h-0.1L64.2,4h0v1.1h-0.2V3.9h0.3
	l0.4,1L65.2,3.9z"/>
</svg>
