<?xml version="1.0" encoding="utf-8"?>
<!-- Generator: Adobe Illustrator 18.0.0, SVG Export Plug-In . SVG Version: 6.00 Build 0)  -->
<!DOCTYPE svg PUBLIC "-//W3C//DTD SVG 1.1//EN" "http://www.w3.org/Graphics/SVG/1.1/DTD/svg11.dtd">
<svg version="1.1" id="Layer_1" xmlns="http://www.w3.org/2000/svg" xmlns:xlink="http://www.w3.org/1999/xlink" x="0px" y="0px"
	 viewBox="0 0 1200 900" enable-background="new 0 0 1200 900" xml:space="preserve">
<g>
	<path fill="#FFFFFF" d="M1021.5,406.6H630V28.5c0-6.6-5.4-12-12-12h-39.2c-6.6,0-12,5.4-12,12v378.1H178.5c-6.6,0-12,5.4-12,12
		v39.2c0,6.6,5.4,12,12,12h388.4v401.8c0,6.6,5.4,12,12,12H618c6.6,0,12-5.4,12-12V469.7h391.5c6.6,0,12-5.4,12-12v-39.2
		C1033.5,412,1028.1,406.6,1021.5,406.6z"/>
</g>
</svg>
